#!OML:ASF F:\VICON\USERDATA\INSTALL\rory3\rory3.ASF
:FULLY-SPECIFIED
:DEGREES
2791
root 6.57179 18.0434 11.2495 720.995 -233.01 723.752
lowerback 10.7181 2.2468 1.02633
upperback 0.352749 3.18779 0.54653
thorax -5.61585 1.566 -0.496582
lowerneck -19.1693 -3.18635 -9.03424
upperneck 30.7493 -1.95764 4.34657
head 13.8204 -0.956753 3.04396
rclavicle 3.27498e-014 -6.95746e-016
rhumerus -36.6274 -12.5288 -75.3062
rradius 35.3643
rwrist 2.99453
rhand -16.7372 8.51776
rfingers 7.12502
rthumb 9.48887 -21.2486
lclavicle 3.27498e-014 -6.95746e-016
lhumerus -36.7189 6.50792 83.472
lradius 28.1583
lwrist -10.3556
lhand -19.1034 24.7672
lfingers 7.12502
lthumb 7.2053 54.6246
rfemur 5.17828 -6.03541 22.1302
rtibia 39.0134
rfoot -1.34521 -4.39164
rtoes -13.2051
lfemur -11.9645 0.648954 -24.2716
ltibia 13.7015
lfoot 1.53349 -4.00855
ltoes 9.1373
2792
root 6.67272 18.0546 11.1614 720.642 -232.473 723.531
lowerback 10.7418 2.1064 0.845881
upperback 0.361941 2.98389 0.612628
thorax -5.63469 1.47153 -0.296328
lowerneck -19.2557 -3.17032 -9.1203
upperneck 30.9576 -1.84805 4.26483
head 13.9225 -0.927897 3.05275
rclavicle -2.10525e-014 8.39865e-015
rhumerus -36.8282 -12.5915 -75.1456
rradius 35.0921
rwrist 3.27067
rhand -16.5117 8.5525
rfingers 7.12502
rthumb 9.70652 -21.2038
lclavicle -2.10525e-014 8.39865e-015
lhumerus -36.7236 6.70268 83.4764
lradius 28.1175
lwrist -10.46
lhand -19.034 24.7043
lfingers 7.12502
lthumb 7.27231 54.5593
rfemur 4.48437 -6.62312 21.6926
rtibia 40.7755
rfoot 0.848137 -3.42753
rtoes -10.7017
lfemur -11.1512 0.77138 -24.5191
ltibia 13.3888
lfoot 1.42164 -4.79043
ltoes 10.1899
2793
root 6.77323 18.0664 11.0765 720.473 -232.034 723.483
lowerback 10.6975 2.02493 0.818701
upperback 0.415113 2.87215 0.607474
thorax -5.55584 1.41865 -0.266387
lowerneck -19.3789 -3.20075 -9.13522
upperneck 31.1083 -1.87674 4.29911
head 14.0186 -0.936056 3.0702
rclavicle -1.97154e-013 7.45443e-015
rhumerus -37.0098 -12.6302 -75.1707
rradius 34.9398
rwrist 3.32454
rhand -16.2874 8.7041
rfingers 7.12502
rthumb 9.92287 -21.042
lclavicle -1.97154e-013 7.45443e-015
lhumerus -36.5051 6.71209 83.4191
lradius 27.9965
lwrist -10.5233
lhand -18.7745 24.8889
lfingers 7.12502
lthumb 7.52285 54.7351
rfemur 3.67321 -6.88501 21.4357
rtibia 42.5008
rfoot 3.14094 -2.59319
rtoes -5.40388
lfemur -10.4621 1.03056 -24.6195
ltibia 13.1971
lfoot 1.19045 -5.48344
ltoes 10.5169
2794
root 6.87376 18.0779 10.9909 720.276 -231.646 723.371
lowerback 10.6399 1.99062 0.735161
upperback 0.484423 2.81473 0.577595
thorax -5.45354 1.39384 -0.238169
lowerneck -19.4038 -3.20431 -9.08625
upperneck 31.0438 -1.91711 4.33987
head 13.9981 -0.942425 3.06897
rclavicle -1.9456e-014 3.77691e-015
rhumerus -37.1977 -12.9198 -75.1587
rradius 34.8491
rwrist 3.51131
rhand -15.9816 8.70464
rfingers 7.12502
rthumb 10.2179 -21.0272
lclavicle -1.9456e-014 3.77691e-015
lhumerus -36.222 6.41308 83.5113
lradius 27.8444
lwrist -10.367
lhand -19.2263 24.896
lfingers 7.12502
lthumb 7.08672 54.7573
rfemur 2.82755 -6.98323 21.1723
rtibia 44.2021
rfoot 5.73323 -2.07745
rtoes -1.78765
lfemur -9.81204 1.34637 -24.7564
ltibia 13.0421
lfoot 0.924419 -6.09605
ltoes 10.9074
2795
root 6.97402 18.0837 10.9017 720.013 -231.375 723.198
lowerback 10.5953 1.99089 0.634615
upperback 0.525192 2.80026 0.533761
thorax -5.38831 1.38956 -0.222643
lowerneck -19.3378 -3.17778 -8.97081
upperneck 30.9098 -1.93951 4.35577
head 13.9241 -0.936251 3.04677
rclavicle -4.0931e-014 1.0138e-014
rhumerus -37.4619 -13.1563 -75.1384
rradius 34.8139
rwrist 3.63153
rhand -15.9444 8.40649
rfingers 7.12502
rthumb 10.2538 -21.3236
lclavicle -4.0931e-014 1.0138e-014
lhumerus -36.0895 5.944 83.6122
lradius 27.9276
lwrist -10.0891
lhand -19.3134 24.7191
lfingers 7.12502
lthumb 7.00263 54.5833
rfemur 1.96812 -7.03455 20.8542
rtibia 45.9167
rfoot 8.39475 -1.53384
rtoes -2.2643
lfemur -9.08427 1.48734 -24.9425
ltibia 12.8006
lfoot 0.673933 -6.42925
ltoes 11.0854
2796
root 7.0735 18.0895 10.8145 719.717 -231.158 722.943
lowerback 10.5786 1.98152 0.409634
upperback 0.505791 2.75955 0.527762
thorax -5.40982 1.37445 -0.0964459
lowerneck -19.2158 -3.13363 -9.03092
upperneck 30.8633 -1.90844 4.49312
head 13.8763 -0.908756 3.11717
rclavicle -7.97002e-015 -2.68359e-015
rhumerus -37.7519 -13.0016 -75.1369
rradius 34.7385
rwrist 3.72284
rhand -15.8832 8.48846
rfingers 7.12502
rthumb 10.3128 -21.2387
lclavicle -7.97002e-015 -2.68359e-015
lhumerus -36.1151 5.87663 83.5948
lradius 28.1834
lwrist -10.1311
lhand -18.8493 24.7125
lfingers 7.12502
lthumb 7.45057 54.5613
rfemur 1.05257 -7.00004 20.4829
rtibia 47.6731
rfoot 10.8872 -1.09799
rtoes -2.16706
lfemur -8.33924 1.64512 -25.1751
ltibia 12.4483
lfoot 0.509416 -6.85296
ltoes 11.3649
2797
root 7.17241 18.0963 10.7324 719.131 -230.867 722.309
lowerback 10.6236 1.95195 -0.129212
upperback 0.48602 2.65215 0.483668
thorax -5.47823 1.33368 0.173888
lowerneck -19.2443 -3.08459 -9.13998
upperneck 30.9256 -1.83825 4.63928
head 13.9062 -0.869319 3.21059
rclavicle 3.33057e-014 -4.47266e-015
rhumerus -37.9832 -12.6842 -75.2217
rradius 34.7123
rwrist 3.68788
rhand -15.7412 8.49242
rfingers 7.12502
rthumb 10.4498 -21.2279
lclavicle 3.33057e-014 -4.47266e-015
lhumerus -36.106 5.88831 83.6054
lradius 28.3541
lwrist -10.2104
lhand -18.4272 24.7815
lfingers 7.12502
lthumb 7.85807 54.6155
rfemur 0.110568 -6.83105 19.8816
rtibia 49.4873
rfoot 13.26 -0.949996
rtoes 0.739461
lfemur -7.5714 1.94665 -25.6484
ltibia 12.0185
lfoot 0.430248 -7.47056
ltoes 12.2448
2798
root 7.26903 18.0997 10.6532 718.565 -230.488 721.723
lowerback 10.6395 1.91211 -0.556879
upperback 0.538656 2.54279 0.380908
thorax -5.44488 1.28977 0.323853
lowerneck -19.3925 -3.0751 -9.01837
upperneck 30.9867 -1.83645 4.58913
head 13.9621 -0.861315 3.17209
rclavicle 2.9445e-015 -7.35503e-015
rhumerus -38.1269 -12.5349 -75.4006
rradius 34.7108
rwrist 3.68038
rhand -15.7439 8.06124
rfingers 7.12502
rthumb 10.4472 -21.6592
lclavicle 2.9445e-015 -7.35503e-015
lhumerus -35.976 5.28578 83.7771
lradius 28.5778
lwrist -9.83964
lhand -18.4703 24.8679
lfingers 7.12502
lthumb 7.81647 54.7034
rfemur -0.866541 -6.678 19.3443
rtibia 51.3695
rfoot 15.5826 -0.810149
rtoes 4.23496
lfemur -6.70717 2.05916 -26.0812
ltibia 11.4421
lfoot 0.393204 -7.91051
ltoes 12.9155
2799
root 7.36445 18.1038 10.5729 718.17 -230.163 721.459
lowerback 10.7661 1.88695 -0.762071
upperback 0.574955 2.48305 0.335016
thorax -5.48351 1.26551 0.396583
lowerneck -19.3374 -3.07543 -8.99527
upperneck 30.9308 -1.85837 4.60883
head 13.9271 -0.864692 3.17023
rclavicle -6.64065e-015 3.77691e-015
rhumerus -38.2841 -12.4707 -75.505
rradius 34.5681
rwrist 3.74354
rhand -15.7644 8.17382
rfingers 7.12502
rthumb 10.4275 -21.5476
lclavicle -6.64065e-015 3.77691e-015
lhumerus -35.9133 4.7084 83.9337
lradius 28.9089
lwrist -9.58299
lhand -18.846 24.7442
lfingers 7.12502
lthumb 7.45382 54.5929
rfemur -1.81 -6.52762 19.0263
rtibia 53.2963
rfoot 17.8624 -0.446598
rtoes 7.21867
lfemur -5.67707 1.90505 -26.2903
ltibia 10.7353
lfoot 0.372989 -8.10771
ltoes 12.7652
2800
root 7.45894 18.1077 10.4899 717.63 -229.859 721.007
lowerback 11.0308 1.85807 -1.14773
upperback 0.51307 2.3919 0.296714
thorax -5.70978 1.2301 0.577188
lowerneck -19.2575 -3.01481 -8.923
upperneck 30.9538 -1.77642 4.55729
head 13.9107 -0.82503 3.15232
rclavicle 1.43799e-013 3.67752e-015
rhumerus -38.5302 -12.1524 -75.5757
rradius 34.3986
rwrist 3.58221
rhand -15.6744 8.72864
rfingers 7.12502
rthumb 10.5142 -20.9884
lclavicle 1.43799e-013 3.67752e-015
lhumerus -36.021 4.42817 83.9754
lradius 29.2706
lwrist -9.40708
lhand -18.783 24.5656
lfingers 7.12502
lthumb 7.51461 54.4121
rfemur -2.77473 -6.54828 18.5089
rtibia 55.2571
rfoot 19.1638 -0.0144032
rtoes 8.10819
lfemur -4.67938 1.67092 -26.6487
ltibia 10.1207
lfoot 0.295368 -8.31852
ltoes 12.6314
2801
root 7.55184 18.105 10.4106 716.994 -229.529 720.33
lowerback 10.9595 1.8361 -1.54275
upperback 0.674308 2.31018 0.11334
thorax -5.50622 1.19874 0.625826
lowerneck -19.4527 -2.9862 -8.71444
upperneck 30.8799 -1.77799 4.47353
head 13.916 -0.816027 3.07892
rclavicle -1.61078e-014 5.86415e-015
rhumerus -38.4286 -12.1041 -75.8433
rradius 34.3058
rwrist 3.72396
rhand -15.7485 8.80147
rfingers 7.12502
rthumb 10.4428 -20.9192
lclavicle -1.61078e-014 5.86415e-015
lhumerus -35.6507 3.9799 83.953
lradius 29.6579
lwrist -8.85824
lhand -18.2257 24.7105
lfingers 7.12502
lthumb 8.05248 54.5371
rfemur -3.8076 -6.71492 17.8307
rtibia 57.193
rfoot 19.2509 0.0757341
rtoes 7.9673
lfemur -3.82841 1.59088 -27.1679
ltibia 9.61105
lfoot 0.113059 -8.64204
ltoes 12.7795
